<svg xmlns="http://www.w3.org/2000/svg" viewBox="0 0 36 24" role="img" aria-label="Rwanda flag">
  <path fill="#00A1DE" d="M0 0h36v12H0z"/>
  <path fill="#FAD201" d="M0 12h36v6H0z"/>
  <path fill="#20603D" d="M0 18h36v6H0z"/>
  <g transform="translate(29 6)">
    <circle r="2.4" fill="#FAD201"/>
    <g fill="#FAD201">
      <path d="M0-5.1 0.55-2.9h-1.1z"/>
      <path d="M0 5.1 0.55 2.9h-1.1z"/>
      <path d="M5.1 0 2.9.55v-1.1z"/>
      <path d="M-5.1 0-2.9.55v-1.1z"/>
      <path d="m3.6-3.6-1.17 1.94-.78-.78z"/>
      <path d="m-3.6 3.6 1.17-1.94.78.78z"/>
      <path d="m3.6 3.6-1.94-1.17.78-.78z"/>
      <path d="m-3.6-3.6 1.94 1.17-.78.78z"/>
    </g>
  </g>
</svg>
